<svg xmlns="http://www.w3.org/2000/svg" viewBox="0 0 128 128" id="menu"><path d="M45.71 58H12.29A12.3 12.3 0 0 1 0 45.71V12.29A12.3 12.3 0 0 1 12.29 0h33.42A12.3 12.3 0 0 1 58 12.29v33.42A12.3 12.3 0 0 1 45.71 58zM12.29 4A8.3 8.3 0 0 0 4 12.29v33.42A8.3 8.3 0 0 0 12.29 54h33.42A8.3 8.3 0 0 0 54 45.71V12.29A8.3 8.3 0 0 0 45.71 4zm103.42 54H82.29A12.3 12.3 0 0 1 70 45.71V12.29A12.3 12.3 0 0 1 82.29 0h33.42A12.3 12.3 0 0 1 128 12.29v33.42A12.3 12.3 0 0 1 115.71 58zM82.29 4A8.3 8.3 0 0 0 74 12.29v33.42A8.3 8.3 0 0 0 82.29 54h33.42a8.3 8.3 0 0 0 8.29-8.29V12.29A8.3 8.3 0 0 0 115.71 4zM45.71 128H12.29A12.3 12.3 0 0 1 0 115.71V82.29A12.3 12.3 0 0 1 12.29 70h33.42A12.3 12.3 0 0 1 58 82.29v33.42A12.3 12.3 0 0 1 45.71 128zM12.29 74A8.3 8.3 0 0 0 4 82.29v33.42a8.3 8.3 0 0 0 8.29 8.29h33.42a8.3 8.3 0 0 0 8.29-8.29V82.29A8.3 8.3 0 0 0 45.71 74zm103.42 54H82.29A12.3 12.3 0 0 1 70 115.71V82.29A12.3 12.3 0 0 1 82.29 70h33.42A12.3 12.3 0 0 1 128 82.29v33.42A12.3 12.3 0 0 1 115.71 128zM82.29 74A8.3 8.3 0 0 0 74 82.29v33.42a8.3 8.3 0 0 0 8.29 8.29h33.42a8.3 8.3 0 0 0 8.29-8.29V82.29a8.3 8.3 0 0 0-8.29-8.29z"></path></svg>